<svg xmlns="http://www.w3.org/2000/svg" viewBox="0 0 46.77 46.24"><defs><style>.cls-1{fill:#fff;}</style></defs><g id="Capa_2" data-name="Capa 2"><g id="borde"><rect class="cls-1" x="7.49" y="28.9" width="14.01" height="2"/><rect class="cls-1" x="7.49" y="23.59" width="22.02" height="2"/><rect class="cls-1" x="7.49" y="7.67" width="22.02" height="2"/><rect class="cls-1" x="7.49" y="12.98" width="22.02" height="2"/><rect class="cls-1" x="7.49" y="18.29" width="22.02" height="2"/><path class="cls-1" d="M35.45,40.07H1.54A1.54,1.54,0,0,1,0,38.53v-37A1.54,1.54,0,0,1,1.54,0H35.45A1.54,1.54,0,0,1,37,1.54v37A1.54,1.54,0,0,1,35.45,40.07ZM3.08,37H33.91V3.08H3.08Z"/><path class="cls-1" d="M45.23,46.24H11.32a1.55,1.55,0,0,1,0-3.09H43.68V9.25H42.14a1.55,1.55,0,0,1,0-3.09h3.09a1.54,1.54,0,0,1,1.54,1.55v37A1.54,1.54,0,0,1,45.23,46.24Z"/></g></g></svg>