<svg xmlns="http://www.w3.org/2000/svg" viewBox="0 0 46.24 46.24"><defs><style>.cls-1{fill:#fff;}</style></defs><g id="Capa_2" data-name="Capa 2"><g id="borde"><path class="cls-1" d="M35.45,40.07H1.54A1.54,1.54,0,0,1,0,38.53v-37A1.54,1.54,0,0,1,1.54,0H35.45A1.54,1.54,0,0,1,37,1.54v37A1.54,1.54,0,0,1,35.45,40.07ZM3.08,37H33.91V3.08H3.08Z"/><path class="cls-1" d="M44.7,46.24H10.79a1.55,1.55,0,0,1,0-3.09H43.15V9.25H41.61a1.55,1.55,0,0,1,0-3.09H44.7a1.54,1.54,0,0,1,1.54,1.55v37A1.54,1.54,0,0,1,44.7,46.24Z"/><path class="cls-1" d="M1.54,32.15A1.54,1.54,0,0,1,.46,29.53L6.7,23.12a4.13,4.13,0,0,1,5.37-.45l5.53,4A1.06,1.06,0,0,0,19,26.56l5.7-5.74a4.25,4.25,0,0,1,5.89,0l6,6.06A1.54,1.54,0,0,1,34.34,29l-6-6.06a1.06,1.06,0,0,0-1.5,0s0,0,0,0L21.1,28.76a4.13,4.13,0,0,1-5.36.46l-5.54-4a1,1,0,0,0-1.35.11L2.64,31.69A1.57,1.57,0,0,1,1.54,32.15Z"/><path class="cls-1" d="M19.8,18.28A6.17,6.17,0,1,1,26,12.11,6.16,6.16,0,0,1,19.8,18.28ZM19.8,9a3.09,3.09,0,1,0,3.09,3.08A3.08,3.08,0,0,0,19.8,9Z"/></g></g></svg>