<svg xmlns="http://www.w3.org/2000/svg" viewBox="0 0 46.24 46.24"><defs><style>.cls-1{fill:#fff;}</style></defs><g id="Capa_2" data-name="Capa 2"><g id="borde"><path class="cls-1" d="M26,14.57c.94-.94.94-2.32.94-3.57s0-2.14.57-2.7a3.17,3.17,0,0,1,2.25-.63.69.69,0,1,0,0-1.38,4.43,4.43,0,0,0-3.26,1c-1,1-.94,2.44-.94,3.7s0,2.13-.5,2.63a.71.71,0,0,0,0,1A.69.69,0,0,0,26,14.57ZM23.11,22.1a2.75,2.75,0,1,0,3.89,0A2.71,2.71,0,0,0,23.11,22.1Zm.88,1a1.42,1.42,0,0,1,2,2,1.4,1.4,0,0,1-2,0A1.41,1.41,0,0,1,24,23.1ZM13.39,11.25,12,12.63a.7.7,0,0,0,0,1l.63.63-.63.63a.7.7,0,0,0,0,1l1.38,1.38a.7.7,0,0,0,1,0l.63-.63.63.63a.7.7,0,0,0,1,0L18,15.89a.69.69,0,0,0,0-1l-.62-.63.62-.63a.69.69,0,0,0,0-1l-1.38-1.38a.69.69,0,0,0-1,0l-.63.63-.63-.63A.76.76,0,0,0,13.39,11.25ZM14,12.69l.63.63a.71.71,0,0,0,1,0l.62-.63.44.44-.62.63a.68.68,0,0,0,0,1l.62.63-.44.44-.62-.63a.71.71,0,0,0-1,0l-.63.63-.43-.44.62-.63a.69.69,0,0,0,0-1l-.62-.63Zm-3.57-2.57L8.81,11.69c-1.94,1.94-3.26,4.89-1,7.15,2.44,2.45,8,2.18,9.39,1.87l1.43,1.42c-.32,1.44-.66,6.87,1.79,9.32,2.25,2.26,5.2.94,7.15-1l1.57-1.56c3-2.95,2.25-7,.62-8.66L19.1,9.55C17.47,7.92,13.45,7.17,10.38,10.12Zm.88,1A5.08,5.08,0,0,1,18,10.5L28.7,21.16a5,5,0,0,1-.63,6.78L26.5,29.5c-.94.94-3.39,2.89-5.27,1-2.26-2.26-.94-7.84-.88-7.91a.47.47,0,0,0-.12-.62L17.28,19a.73.73,0,0,0-.63-.13c-.06.06-5.58,1.44-7.9-.88-1.95-1.94.06-4.33,1-5.27Z"/><path class="cls-1" d="M35.45,40.07H1.54A1.54,1.54,0,0,1,0,38.53v-37A1.54,1.54,0,0,1,1.54,0H35.45A1.54,1.54,0,0,1,37,1.54v37A1.54,1.54,0,0,1,35.45,40.07ZM3.08,37H33.91V3.08H3.08Z"/><path class="cls-1" d="M44.7,46.24H10.79a1.55,1.55,0,0,1,0-3.09H43.15V9.25H41.61a1.55,1.55,0,0,1,0-3.09H44.7a1.54,1.54,0,0,1,1.54,1.55v37A1.54,1.54,0,0,1,44.7,46.24Z"/></g></g></svg>