<svg xmlns="http://www.w3.org/2000/svg" viewBox="0 0 46.24 46.24"><defs><style>.cls-1{fill:#fff;}</style></defs><g id="Capa_2" data-name="Capa 2"><g id="borde"><path class="cls-1" d="M35.45,40.07H1.54A1.54,1.54,0,0,1,0,38.53v-37A1.54,1.54,0,0,1,1.54,0H35.45A1.54,1.54,0,0,1,37,1.54v37A1.54,1.54,0,0,1,35.45,40.07ZM3.08,37H33.91V3.08H3.08Z"/><path class="cls-1" d="M44.7,46.24H10.79a1.55,1.55,0,0,1,0-3.09H43.15V9.25H41.61a1.55,1.55,0,0,1,0-3.09H44.7a1.54,1.54,0,0,1,1.54,1.55v37A1.54,1.54,0,0,1,44.7,46.24Z"/><path class="cls-1" d="M26.45,6.62a1.46,1.46,0,0,1,1.74,1.43V24A4.62,4.62,0,0,1,27,27.43a4.69,4.69,0,0,1-3.42,1.22,3.77,3.77,0,0,1-2.45-.78,2.51,2.51,0,0,1-1-2,3.23,3.23,0,0,1,1.21-2.55,4.72,4.72,0,0,1,3.14-1,5.28,5.28,0,0,1,1.52.24.09.09,0,0,0,.07,0,0,0,0,0,0,0,0V12.21a.19.19,0,0,0-.1-.16A.17.17,0,0,0,25.8,12L14.15,14.23a.29.29,0,0,0-.25.31V27.09a4.67,4.67,0,0,1-1.25,3.45,4.64,4.64,0,0,1-3.41,1.21A3.73,3.73,0,0,1,6.78,31a2.46,2.46,0,0,1-1-2A3.19,3.19,0,0,1,7,26.41a4.73,4.73,0,0,1,3.14-1,5.36,5.36,0,0,1,1.52.25.09.09,0,0,0,.06,0,0,0,0,0,0,0,0V11.15a2.14,2.14,0,0,1,.47-1.36A1.94,1.94,0,0,1,13.49,9Z"/></g></g></svg>