<svg xmlns="http://www.w3.org/2000/svg" viewBox="0 0 54.63 54.63"><defs><style>.cls-1{fill:#fff;}</style></defs><g id="Capa_2" data-name="Capa 2"><g id="borde"><path class="cls-1" d="M41.89,47.35H1.82A1.83,1.83,0,0,1,0,45.53V1.82A1.83,1.83,0,0,1,1.82,0H41.89a1.83,1.83,0,0,1,1.82,1.82V45.53A1.83,1.83,0,0,1,41.89,47.35ZM3.64,43.71H40.06V3.64H3.64Z"/><path class="cls-1" d="M52.81,54.63H12.75a1.82,1.82,0,0,1,0-3.64H51V10.93H49.17a1.83,1.83,0,0,1,0-3.65h3.64a1.82,1.82,0,0,1,1.82,1.83v43.7A1.81,1.81,0,0,1,52.81,54.63Z"/><rect class="cls-1" x="5.42" y="6.33" width="3.87" height="3.87"/><rect class="cls-1" x="15.11" y="6.33" width="3.87" height="3.87"/><rect class="cls-1" x="24.79" y="6.33" width="3.87" height="3.87"/><rect class="cls-1" x="34.44" y="6.33" width="3.87" height="3.87"/><rect class="cls-1" x="5.42" y="37.76" width="3.87" height="3.87"/><rect class="cls-1" x="15.11" y="37.76" width="3.87" height="3.87"/><rect class="cls-1" x="24.79" y="37.76" width="3.87" height="3.87"/><rect class="cls-1" x="34.44" y="37.76" width="3.87" height="3.87"/><polygon class="cls-1" points="17.1 18.23 17.1 29.7 28.67 24.1 17.1 18.23"/></g></g></svg>