<svg xmlns="http://www.w3.org/2000/svg" viewBox="0 0 69.53 26.96"><defs><style>.cls-1{fill:#fff;}</style></defs><g id="Capa_2" data-name="Capa 2"><g id="borde"><path class="cls-1" d="M11.51,15.33a5.82,5.82,0,1,0,5.81,5.81A5.82,5.82,0,0,0,11.51,15.33Zm0,8.4a2.59,2.59,0,1,1,2.58-2.59A2.59,2.59,0,0,1,11.51,23.73Z"/><path class="cls-1" d="M57.55,16.37a5.3,5.3,0,1,0,5.29,5.29A5.3,5.3,0,0,0,57.55,16.37Zm0,7.36a2.06,2.06,0,1,1,2.06-2.07A2.07,2.07,0,0,1,57.55,23.73Z"/><rect class="cls-1" x="15.56" y="19.12" width="38.78" height="2.86"/><polygon class="cls-1" points="68.6 10.7 67.25 9.34 64.66 8.11 47.16 6.45 38.19 0 30.64 0 21.06 1.63 9.89 6.79 7.22 5.94 0 5.94 0 8.27 2.22 11.6 0 13.1 0 18.17 3.82 22.09 7.69 22.09 7.34 19.13 5.08 19.13 2.86 16.99 2.86 14.62 6.17 12.38 3.79 8.8 6.78 8.8 10.07 9.85 21.91 4.38 30.88 2.86 37.27 2.86 46.12 9.22 63.89 10.9 65.57 11.71 66.08 12.21 66.63 14 66.42 15.87 64.76 18.37 63.36 19.07 61.63 19.09 61.69 22.09 63.95 22.09 67.14 19.95 69.19 16.88 69.53 13.72 68.6 10.7"/></g></g></svg>