<svg xmlns="http://www.w3.org/2000/svg" viewBox="0 0 56.38 38.06"><defs><style>.cls-1{fill:#fff;}</style></defs><g id="Capa_2" data-name="Capa 2"><g id="borde"><path id="bike-10-bike-10" class="cls-1" d="M2,20.7a10.93,10.93,0,0,0-.68,11.47,11.68,11.68,0,0,0,5,4.7,11.94,11.94,0,0,0,12.5-1.38A10.94,10.94,0,0,0,23,27.9l.07,0,1.69,0a3.43,3.43,0,0,0,1.73,2.51,3.79,3.79,0,0,0,1.25.38v3H25.56l0,2.26,5.36,0V33.78H28.75l0-3a3.63,3.63,0,0,0,2.64-2.24,3.39,3.39,0,0,0-.75-3.39l6.67-12.9s0,0,0,0c.8,1.6,1.43,3.32,2.19,4.95a11.15,11.15,0,0,0-6.25,10.17A11.22,11.22,0,0,0,39.79,37,12.09,12.09,0,0,0,53,34.83,10.73,10.73,0,0,0,56,24c-1.05-4.07-5.27-7.44-9.37-7.91a11.32,11.32,0,0,0-4.89.28l-2.43-5.44L36.1,3.6l-.52-1.16c1.53-.21,3.24,0,4.89-.16a2.69,2.69,0,0,1,1.94.77,2.39,2.39,0,0,1,.4,2.13,2,2,0,0,1-1.16,1.08c-.9.1-2.13-.12-2.41,1a1.13,1.13,0,0,0,.18.88c.51.86,1.64.36,2.4.43a4.06,4.06,0,0,0,3.24-2.89,4.52,4.52,0,0,0-1-4.22C42-.81,38.71.3,36,.11,34.73.2,33.32.14,32,.16V.29L34.65,6,36,9.15H18.2L16.32,6.29l.1-.28,3.89,0a1.56,1.56,0,0,0,1.16-.91,1.53,1.53,0,0,0-.2-1.33,1.63,1.63,0,0,0-1-.55l-6.3,0c-1.32,0-3.1.23-3.74,1.72a1.7,1.7,0,0,0,.33,1.69,3.9,3.9,0,0,0,3.86,1l1.79,2.71-2,5.9A11.83,11.83,0,0,0,2,20.7Zm38.43-1.35,3.12,7.12a1.83,1.83,0,0,0,0,1.11,1.86,1.86,0,0,0,1.44,1.25,1.8,1.8,0,0,0,1.53-.55,1.89,1.89,0,0,0,.42-1.63,1.79,1.79,0,0,0-1.3-1.36l-3-6.78a10,10,0,0,1,6,.55A8.94,8.94,0,0,1,54,26.17,8.68,8.68,0,0,1,50,34.28a9.84,9.84,0,0,1-9.67.38,8.93,8.93,0,0,1-4.44-5.52,8.53,8.53,0,0,1,3.09-8.91A6,6,0,0,1,40.42,19.35ZM20.57,25.54H13.45c.74-2.11,1.44-4.28,2.19-6.35A9.09,9.09,0,0,1,20.57,25.54Zm4.68-5.72-5.52-8.36,15.37,0-.73,1.38-5.8,11.26-.52,0Zm-2.33,5.72A11.26,11.26,0,0,0,16.39,17c.48-1.4.95-2.79,1.44-4.19l.7,1.08,7.28,11.07-.53.6Zm-19.42-3a9.4,9.4,0,0,1,9.93-4.14l-2.38,6.9a1.81,1.81,0,0,0-1.28,1,1.84,1.84,0,0,0,.25,2,1.71,1.71,0,0,0,2.89-.42l7.73,0A8.84,8.84,0,0,1,17,34a9.57,9.57,0,0,1-10.22.55,9.31,9.31,0,0,1-3.32-3.19A8.54,8.54,0,0,1,3.5,22.58Z"/></g></g></svg>