<svg xmlns="http://www.w3.org/2000/svg" viewBox="0 0 62 36"><defs><style>.cls-1{fill:#fff;}</style></defs><g id="Capa_2" data-name="Capa 2"><g id="borde"><g id="Layer_20" data-name="Layer 20"><path class="cls-1" d="M59,4H58V3a3,3,0,0,0-3-3H7A3,3,0,0,0,4,3V4H3A3,3,0,0,0,0,7V30a3,3,0,0,0,3,3H7.42a5,5,0,0,0,9.16,0H47.42a5,5,0,0,0,9.16,0H59a3,3,0,0,0,3-3V7A3,3,0,0,0,59,4ZM6,3A1,1,0,0,1,7,2H55a1,1,0,0,1,1,1V4H6ZM3,6H58.86A1.14,1.14,0,0,1,60,7.13V27H55a4.89,4.89,0,0,0-6,0H46V16a1,1,0,0,0-1-1H33a1,1,0,0,0-1,1V27H15a4.89,4.89,0,0,0-6,0H2V7A1,1,0,0,1,3,6ZM40,17h4V31H40ZM38,31H34V17h4ZM3,31a1,1,0,0,1-1-1V29H7.42A4.92,4.92,0,0,0,7,31Zm9,3a3,3,0,1,1,3-3A3,3,0,0,1,12,34Zm4.58-5H32v2H17A4.92,4.92,0,0,0,16.58,29ZM46,31V29h1.42A4.92,4.92,0,0,0,47,31Zm6,3a3,3,0,1,1,3-3A3,3,0,0,1,52,34Zm7-3H57a4.92,4.92,0,0,0-.42-2H60v1A1,1,0,0,1,59,31Z"/></g></g></g></svg>