<svg xmlns="http://www.w3.org/2000/svg" viewBox="0 0 19.69 37.67"><defs><style>.cls-1{fill:#fff;}</style></defs><g id="Capa_2" data-name="Capa 2"><g id="borde"><path class="cls-1" d="M8.93,6.09a2.84,2.84,0,0,0,2.08-1A3,3,0,0,0,11.81,3,3.1,3.1,0,0,0,10.89.84,2.83,2.83,0,0,0,8.76,0,2.87,2.87,0,0,0,6.68,1a3.12,3.12,0,0,0-.84,2.16,2.82,2.82,0,0,0,.92,2.12A2.93,2.93,0,0,0,8.93,6.09Z"/><path class="cls-1" d="M19.05,16.21l-4.4-2.4-3.6-5.76A3.18,3.18,0,0,0,8.48,6.77a2.93,2.93,0,0,0-2,.88L1,13.17a1.68,1.68,0,0,0-.32.72L0,20.05v.16a1.28,1.28,0,0,0,.4,1,1.31,1.31,0,0,0,1,.4,1.18,1.18,0,0,0,.92-.4,1.68,1.68,0,0,0,.44-.88L3.28,15,5.2,13.09,3.44,27.82l-3.12,7a2.7,2.7,0,0,0-.16.88,2,2,0,0,0,.6,1.48,1.74,1.74,0,0,0,1.48.52A1.84,1.84,0,0,0,4,36.54L7.36,29a.94.94,0,0,1,.08-.28c.06-.14.11-.26.16-.36a.66.66,0,0,0,.08-.32l.4-3.6L11.53,36.3a1.88,1.88,0,0,0,2,1.36,1.92,1.92,0,0,0,1.4-.6,2,2,0,0,0,.6-1.48.58.58,0,0,0,0-.2.54.54,0,0,1,0-.2l-4.8-16.41.56-5.36,1.36,2.16a1.39,1.39,0,0,0,.4.4l4.72,2.64a2.43,2.43,0,0,0,.64.16,1.24,1.24,0,0,0,1-.44,1.41,1.41,0,0,0,.4-1A1.25,1.25,0,0,0,19.05,16.21Z"/></g></g></svg>