<svg xmlns="http://www.w3.org/2000/svg" viewBox="0 0 58.49 34.81"><defs><style>.cls-1{fill:#fff;}</style></defs><g id="Capa_2" data-name="Capa 2"><g id="borde"><path class="cls-1" d="M43.61,19a.93.93,0,0,1,0,1.32,7.5,7.5,0,1,0,5.47-2.37.94.94,0,0,1,0-1.87,9.37,9.37,0,1,1,0,18.74,9.23,9.23,0,0,1-9.37-9.37A9.33,9.33,0,0,1,42.29,19,.93.93,0,0,1,43.61,19Z"/><path class="cls-1" d="M.69,22.43l2.85.76a9.24,9.24,0,0,0-.27,2.25,9.35,9.35,0,0,0,9.32,9.37c3.8,0,7.17-2.35,8.27-4.88h4.53a4.15,4.15,0,0,0,2.64.94l6.08-.47a3.76,3.76,0,0,0,3.74-3.74,3.72,3.72,0,0,0-.14-1l3-11.35a.37.37,0,0,1,.36-.28h1.74l4.43,10a2.31,2.31,0,0,0-.54,1.49A2.34,2.34,0,1,0,49,23.13c-1.73-3.85-3.48-7.68-5.19-11.53l3.24.6a2.13,2.13,0,0,0,2.41-1.56,12.88,12.88,0,0,0,0-7.43,2,2,0,0,0-2.2-1.6l-4.93.93a.94.94,0,1,0,.35,1.84L44.82,4a10.51,10.51,0,0,0,0,5.91L42.9,9.52l-4-9A.93.93,0,0,0,38.08,0a.9.9,0,0,0-.4.08.93.93,0,0,0-.47,1.24l.12.28-1.7.45-.24-.91A.94.94,0,0,0,34.24.48L29.73,1.69a2.86,2.86,0,0,0-2,3.4,2.81,2.81,0,0,0,3.45,2L35.69,5.9a.93.93,0,0,0,.67-1.14l-.24-.9,2-.54L42,12.16h-.91A2.24,2.24,0,0,0,39,13.82l-2.64,9.83a3.68,3.68,0,0,0-2.2-.73l-6.05-.47a4.24,4.24,0,0,0-4.24,4.21,4.08,4.08,0,0,0,.24,1.4H21.63A9.07,9.07,0,0,0,22,25.44,9.33,9.33,0,0,0,19.44,19a.93.93,0,1,0-1.35,1.28,7.5,7.5,0,1,1-8-1.91.93.93,0,1,0-.63-1.76,9.38,9.38,0,0,0-5.33,4.81L2.43,21a11.39,11.39,0,0,1,8.29-6.77,3.22,3.22,0,0,0,3.15,3.2l-1.51,5.73a2.35,2.35,0,1,0,1.79.54l1.66-6.27h9.88a2.77,2.77,0,0,0,1.77-.63,2.8,2.8,0,0,0,1.78.63H36a.94.94,0,0,0,.94-.94,1,1,0,0,0-.94-.93H29.24a1,1,0,0,1-1-1.1A1.55,1.55,0,0,1,29.44,13a18.26,18.26,0,0,0,4.41-2,10.15,10.15,0,0,1,3.89-1.4,1,1,0,0,0,.83-1,.93.93,0,0,0-1-.82A11.92,11.92,0,0,0,33,9.39a16.73,16.73,0,0,1-4,1.78,3.66,3.66,0,0,0-1.16.52,6.93,6.93,0,0,0-2.91-1.09,19.91,19.91,0,0,0-3.42-.27A47.52,47.52,0,0,1,15.42,10a4.21,4.21,0,0,0-3.3.88,3.77,3.77,0,0,0-1,1.39,13.3,13.3,0,0,0-11,9A.94.94,0,0,0,.69,22.43ZM12.6,14a2.06,2.06,0,0,1,.72-1.68,2.51,2.51,0,0,1,1.86-.47,46.34,46.34,0,0,0,6.3.37,18.43,18.43,0,0,1,3.1.24,6.07,6.07,0,0,1,2,.7,2.69,2.69,0,0,0-.17,2,.93.93,0,0,1-.74.36h-12C13,15.52,12.6,14.93,12.6,14ZM34.31,4.34l-3.62,1a.91.91,0,0,1-1.13-.63.94.94,0,0,1,.65-1.18l3.61-1ZM47,3.57c.17-.36.63-.23.74.21a11.25,11.25,0,0,1,0,6.3c-.17.43-.61.49-.74.2A8.68,8.68,0,0,1,47,3.57ZM25.69,26.66A2.33,2.33,0,0,1,28,24.32l6.09.47A1.89,1.89,0,0,1,36,26.66a1.86,1.86,0,0,1-1.87,1.87L28,29A2.16,2.16,0,0,1,25.69,26.66Z"/></g></g></svg>