<svg xmlns="http://www.w3.org/2000/svg" viewBox="0 0 62.85 55"><defs><style>.cls-1{fill:#fff;}</style></defs><g id="Capa_2" data-name="Capa 2"><g id="Capa_16" data-name="Capa 16"><path class="cls-1" d="M60.24,0A2.61,2.61,0,0,1,62.1.79a2.48,2.48,0,0,1,.75,1.82V52.39a2.48,2.48,0,0,1-.75,1.82,2.65,2.65,0,0,1-1.86.79H18.32a2.61,2.61,0,0,1-1.85-.79,2.45,2.45,0,0,1-.76-1.82V43.21H2.61a2.69,2.69,0,0,1-1.86-.75A2.69,2.69,0,0,1,0,40.6V14.39a2.65,2.65,0,0,1,.75-1.85,2.7,2.7,0,0,1,1.86-.76h13.1V2.61A2.45,2.45,0,0,1,16.47.79,2.57,2.57,0,0,1,18.32,0M15.71,30.83l3.71,7h5.63L18.86,27.69l6.06-10H19.55L16.12,24l-.12.19-.1.22c-.54-1.11-1.13-2.23-1.76-3.36s-1.08-2.23-1.66-3.37H6.79l5.94,10L6.29,37.81h5.59M37.33,51.07V43.21H19.64v7.86M37.33,39.28v-9.8h-5.9v9.8m5.9-13.73V15.71h-5.9v9.84m5.9-13.77V3.93H19.64v7.85M58.92,51.07V43.21H41.26v7.86M58.92,39.28v-9.8H41.26v9.8M58.92,25.55V15.71H41.26v9.84M58.92,11.78V3.93H41.26v7.85Z"/></g></g></svg>