<svg xmlns="http://www.w3.org/2000/svg" viewBox="0 0 51.63 63.49"><defs><style>.cls-1{fill:#fff;}</style></defs><g id="Capa_2" data-name="Capa 2"><g id="Capa_16" data-name="Capa 16"><path class="cls-1" d="M6.68.09c-.08.08-.15,8.3-.15,18.24v18.1l22.2.06c12.2,0,22.34.14,22.55.25s.35-.6.31-15.81L51.53,5l-.66-1.34a6.36,6.36,0,0,0-1.62-2.13C47.41,0,48.88.07,26.7,0,15.78,0,6.76,0,6.68.09ZM41.44,7.22a3.68,3.68,0,0,1,1.23.94l.57.68-.06,4.78c-.06,4.75-.06,4.75-.57,5.32-1,1.13-.84,1.11-14,1.11H16.43l-.69-.47c-1.29-.86-1.42-1.37-1.42-6.17,0-4,0-4.32.43-5C15.57,6.91,15.08,7,28.63,7,38.45,6.93,40.91,7,41.44,7.22Z"/><path class="cls-1" d="M16.58,9.39a20.15,20.15,0,0,0-.17,4.25l.07,3.83.51.27c.39.2,3.13.26,11.89.26,10,0,11.43,0,11.84-.33s.45-.41.45-4.1a24.18,24.18,0,0,0-.2-4.2C40.76,9,40.4,9,28.77,9S16.78,9,16.58,9.39Z"/><path class="cls-1" d="M3.28.8A6.73,6.73,0,0,0,.67,3.63L.08,4.78,0,20.05c0,8.4,0,16.32.06,17.61L.22,40l.66-.71A10.14,10.14,0,0,1,4,37.06l.53-.2V18.62C4.48,4.17,4.42.37,4.24.37A3.21,3.21,0,0,0,3.28.8Z"/><path class="cls-1" d="M5.71,38.83c-3,.8-4.87,3-5.55,6.41a7.45,7.45,0,0,0,2.28,7A5.53,5.53,0,0,0,5.2,54.06a10.48,10.48,0,0,0,4.1.38L12,54.38V50.69l-2.81-.1c-3.16-.12-3.45-.22-4.57-1.82A2.83,2.83,0,0,1,4,46.64a4.52,4.52,0,0,1,1.44-3.43L6,42.7,28,42.6c12.13-.06,22.23-.19,22.42-.27a3.12,3.12,0,0,0,1.19-2,2.28,2.28,0,0,0-.7-1.14l-.7-.7-21.68,0C10.12,38.52,6.68,38.58,5.71,38.83Z"/><path class="cls-1" d="M6.55,45.18a2.19,2.19,0,0,0,.58,3.16,10.61,10.61,0,0,0,2.68.16L12,48.44,12,46.53l.06-1.88H9.53C7,44.65,7,44.65,6.55,45.18Z"/><path class="cls-1" d="M14.16,54c0,6.79.12,9.39.29,9.39a4.89,4.89,0,0,0,1.14-1.33c1.17-1.72,2.28-2.46,3.82-2.6,1.94-.17,3.3.84,5.08,3.75.2.33.29.35.51.12s.31-2.07.35-9.47l.06-9.22H14.12Z"/><path class="cls-1" d="M27.48,46.53l.06,1.91,10,.06,10,0-.19-.65a5.32,5.32,0,0,1,.15-2.83c.22-.41.2-.41-9.94-.41H27.42Z"/><path class="cls-1" d="M27.44,52.54v2H50.17l.74-.64a1.53,1.53,0,0,0,.39-2.23c-.72-1.07-.23-1-12.42-1H27.44Z"/></g></g></svg>