<svg xmlns="http://www.w3.org/2000/svg" viewBox="0 0 57.82 58.82"><defs><style>.cls-1{fill:#fff;}</style></defs><g id="Capa_2" data-name="Capa 2"><g id="Capa_16" data-name="Capa 16"><g id="Pentool"><path class="cls-1" d="M57.78,3.72a.91.91,0,0,0-.59-1.14.89.89,0,0,0-.93.23L35.74,23.91a.91.91,0,0,0-.19,1,3.63,3.63,0,1,1-4.74-2,3.6,3.6,0,0,1,2.66,0,.92.92,0,0,0,1-.22L55,1.54A.91.91,0,0,0,54,.05L17.58,12.76a.91.91,0,0,0-.57.58L12.54,27.42l19,18.51,14-4.86a.93.93,0,0,0,.57-.59Z"/><rect class="cls-1" x="14.62" y="24.24" width="7.27" height="32.69" rx="0.91" transform="translate(-23.57 25.37) rotate(-45.79)"/><path class="cls-1" d="M.26,39.55a.91.91,0,0,0,0,1.28L18.5,58.56a.91.91,0,0,0,1.29,0L24.22,54,4.69,35Z"/></g></g></g></svg>