<svg xmlns="http://www.w3.org/2000/svg" viewBox="0 0 82.01 55.05"><defs><style>.cls-1{fill:#fff;}</style></defs><g id="Capa_2" data-name="Capa 2"><g id="Capa_16" data-name="Capa 16"><path class="cls-1" d="M56.57,12.54h2.79c4.82,0,9.64.05,13.25.1,6.83.11,6.89.15,7.68.65,1.33.84,1.41,2.21,1.51,3.94.15,2.54.23,7.38.2,12,0,2.33-.06,4.35-.13,5.82-.12,2.57-.22,3.74-1.32,4.64-.93.76-1.22,1-20.43,1.05-6.95,0-18.83,0-20.58-.44a2.84,2.84,0,0,1-2-1.61c-.27-.61-.45-1-.47-12.14,0-11.45.13-11.68.73-12.53.85-1.23,2-1.27,3.91-1.35,1,0,2.55-.08,4.46-.1,2.75,0,6.39-.07,10.41-.07ZM76.25,18.3c-6.65-.18-26.85-.27-33.58-.06-.09,4.06-.06,12.72,0,16.77,6.69.26,27,.24,33.56,0,.17-3.91.17-12.66,0-16.69Z"/><path class="cls-1" d="M14,12.55c4.05,0,8.45.06,10.32.2a3.55,3.55,0,0,1,2.7,1.1c.74.88.89,1.06.94,11.56,0,1.62,0,9.8-.21,12.06a3.19,3.19,0,0,1-1.17,2.32c-.88.67-1,.81-12.31.82-10.67,0-11.56-.23-11.89-.32a2.81,2.81,0,0,1-1.9-1.65c-.22-.51-.35-.86-.44-12C0,16-.06,14.67,1.21,13.55c.88-.78,1.09-1,11.07-1Zm8.27,5.69c-4-.14-12.64-.13-16.64,0-.09,3.94,0,12.52.09,16.74,4.07.1,12.55.1,16.57,0C22.42,31,22.41,22.28,22.27,18.24Z"/><path class="cls-1" d="M27.53,55,38,55.05l-5.33-8.34Z"/><path class="cls-1" d="M27.53.09,38,0,32.62,8.33Z"/><path class="cls-1" d="M31,44.07c0,1.49,3.18,1.66,3.22.13,0-.69,0-30.73,0-31.68,0-1.75-2.79-1.84-3-.22C31.12,13.43,31,43,31,44.07Z"/><path class="cls-1" d="M38.49,42.48c-1.49,0-1.56,3,0,3,.69,0,40.14,0,41.1,0,1.74,0,1.83-2.79.22-3C78.64,42.42,39.57,42.45,38.49,42.48Z"/><path class="cls-1" d="M1.11,42.66c-1.48,0-1.49,2.79,0,2.84.7,0,24.45,0,25.41,0,1.75,0,1.83-2.79.22-3-1.13-.12-24.57.08-25.66.12Z"/></g></g></svg>