<svg xmlns="http://www.w3.org/2000/svg" viewBox="0 0 54.54 54.46"><defs><style>.cls-1{fill:#fff;}</style></defs><g id="Capa_2" data-name="Capa 2"><g id="Capa_16" data-name="Capa 16"><g id="Layer_2" data-name="Layer 2"><path class="cls-1" d="M43.71,46.29a8.17,8.17,0,0,0-3.43-6.65L47,16.32a8.17,8.17,0,1,0-8.69-9.23l-23.12,5a8.17,8.17,0,1,0-3.76,11.79L28.27,42.45a8.19,8.19,0,1,0,15.44,3.84ZM16.47,17.39l23-5A8.19,8.19,0,0,0,41.7,14.8L35,38.11a8.45,8.45,0,0,0-2.72.6L15.41,20.11A8.38,8.38,0,0,0,16.47,17.39Zm30-12a2.73,2.73,0,1,1-2.72,2.72A2.72,2.72,0,0,1,46.43,5.43ZM5.58,16.32A2.72,2.72,0,1,1,8.3,19.05,2.72,2.72,0,0,1,5.58,16.32Zm27.24,30A2.72,2.72,0,1,1,35.54,49,2.72,2.72,0,0,1,32.82,46.29Z"/></g></g></g></svg>