<svg xmlns="http://www.w3.org/2000/svg" viewBox="0 0 76.82 52.59"><defs><style>.cls-1{fill:none;}.cls-2{fill:#fff;}</style></defs><g id="Capa_2" data-name="Capa 2"><g id="Capa_16" data-name="Capa 16"><circle class="cls-1" cx="56.29" cy="13.75" r="1.38"/><path class="cls-1" d="M67.54,6.53c-2.23-.87-10-3.78-14-3.78-2,0-4.4,1.94-6.69,3.82C44.18,8.75,41.42,11,38.41,11S32.64,8.75,30,6.57c-2.3-1.88-4.67-3.82-6.7-3.82-4,0-11.77,2.91-14,3.78-.93,3.16-5,17.24-6,24.6-.63,4.69-.58,14.15-.58,14.24,0,2.31.53,3.93,1.48,4.35s2.52-.25,4.2-1.8c.29-.31,8.83-9.41,15.54-9.41H52.85c6.71,0,15.25,9.1,15.61,9.49,1.64,1.45,3.23,2.12,4.17,1.7s1.46-2,1.44-4.29a141.35,141.35,0,0,0-.58-14.28C72.5,23.77,68.46,9.69,67.54,6.53ZM52.16,13.75a4.13,4.13,0,1,1,4.13,4.13A4.14,4.14,0,0,1,52.16,13.75Zm9.63,12.38A4.13,4.13,0,1,1,65.92,22,4.13,4.13,0,0,1,61.79,26.13Z"/><circle class="cls-1" cx="61.79" cy="22" r="1.38"/><path class="cls-2" d="M25.83,15.3H23.08V12.55a1.37,1.37,0,0,0-1.37-1.37H17.58a1.37,1.37,0,0,0-1.37,1.37V15.3H13.46a1.38,1.38,0,0,0-1.38,1.38V20.8a1.38,1.38,0,0,0,1.38,1.38h2.75v2.75a1.37,1.37,0,0,0,1.37,1.37h4.13a1.37,1.37,0,0,0,1.37-1.37V22.18h2.75a1.38,1.38,0,0,0,1.38-1.38V16.68A1.38,1.38,0,0,0,25.83,15.3Zm-1.37,4.13H21.71a1.37,1.37,0,0,0-1.38,1.37v2.75H19V20.8a1.37,1.37,0,0,0-1.38-1.37H14.83V18.05h2.75A1.37,1.37,0,0,0,19,16.68V13.93h1.37v2.75a1.37,1.37,0,0,0,1.38,1.37h2.75Z"/><path class="cls-2" d="M60.42,13.75a4.13,4.13,0,1,0-4.13,4.13A4.13,4.13,0,0,0,60.42,13.75Zm-4.13,1.38a1.38,1.38,0,1,1,1.38-1.38A1.37,1.37,0,0,1,56.29,15.13Z"/><path class="cls-2" d="M55.28,21.85A4.13,4.13,0,1,0,51.15,26,4.13,4.13,0,0,0,55.28,21.85Zm-4.13,1.37a1.38,1.38,0,1,1,1.38-1.37A1.37,1.37,0,0,1,51.15,23.22Z"/><path class="cls-2" d="M61.79,17.88A4.13,4.13,0,1,0,65.92,22,4.13,4.13,0,0,0,61.79,17.88Zm0,5.5A1.38,1.38,0,1,1,63.17,22,1.37,1.37,0,0,1,61.79,23.38Z"/><path class="cls-2" d="M76.22,30.76c-1.15-8.49-6-25-6.23-25.65a1.4,1.4,0,0,0-.8-.88C68.77,4.06,58.79,0,53.54,0c-3,0-5.77,2.25-8.43,4.44-2.3,1.87-4.67,3.81-6.7,3.81S34,6.31,31.72,4.44C29.05,2.25,26.3,0,23.28,0,18,0,8.06,4.06,7.63,4.23a1.38,1.38,0,0,0-.79.88C6.63,5.81,1.75,22.27.6,30.76A142,142,0,0,0,0,45.36c0,4.76,1.92,6.35,3.11,6.88a4.26,4.26,0,0,0,1.72.35c1.35,0,3.23-.58,5.54-2.72,2.23-2.4,9-8.61,13.6-8.61H52.85c4.58,0,11.37,6.21,13.69,8.7,3.56,3.18,6.06,2.77,7.23,2.24s3.09-2.11,3-6.79A142.62,142.62,0,0,0,76.22,30.76ZM74.07,45.41c0,2.27-.52,3.87-1.44,4.29s-2.53-.25-4.17-1.7c-.36-.39-8.9-9.49-15.61-9.49H24c-6.71,0-15.25,9.1-15.54,9.41-1.68,1.55-3.25,2.23-4.2,1.8s-1.5-2-1.48-4.35c0-.09,0-9.55.58-14.24,1-7.36,5-21.44,6-24.6,2.22-.87,10-3.78,14-3.78,2,0,4.4,1.94,6.7,3.82C32.64,8.75,35.4,11,38.41,11s5.77-2.25,8.44-4.43c2.29-1.88,4.66-3.82,6.69-3.82,4,0,11.77,2.91,14,3.78.92,3.16,5,17.24,5.95,24.6A141.35,141.35,0,0,1,74.07,45.41Z"/></g></g></svg>