<svg xmlns="http://www.w3.org/2000/svg" viewBox="0 0 68.32 56.02"><defs><style>.cls-1{fill:#fff;}</style></defs><g id="Capa_2" data-name="Capa 2"><g id="Capa_16" data-name="Capa 16"><path class="cls-1" d="M8.3,18.89A6.34,6.34,0,1,0,2,12.55,6.34,6.34,0,0,0,8.3,18.89Z"/><path class="cls-1" d="M34,22A11,11,0,1,0,23,11,11,11,0,0,0,34,22Z"/><path class="cls-1" d="M43.34,23.07a15.17,15.17,0,0,1-18.55.07,8.31,8.31,0,0,0-4.69,7.55V51.26C22.18,52.65,27.86,56,34,56c8.16,0,12.67-3.27,14.13-4.55V30.69A8.51,8.51,0,0,0,43.34,23.07Z"/><path class="cls-1" d="M16.59,20a11.1,11.1,0,0,1-14.5,1.82A4.35,4.35,0,0,0,0,25.69V38.13c3.49,2.73,11.74,3.61,17.66-.1v-8.5a14.08,14.08,0,0,1,1.42-6.23A8.38,8.38,0,0,0,16.59,20Z"/><path class="cls-1" d="M60,18.89a6.34,6.34,0,1,1,6.33-6.34A6.35,6.35,0,0,1,60,18.89Z"/><path class="cls-1" d="M51.73,20a11.11,11.11,0,0,0,14.51,1.82,4.36,4.36,0,0,1,2.08,3.87V38.13c-3.48,2.73-11.73,3.61-17.66-.1v-8.5a14.08,14.08,0,0,0-1.42-6.23A8.38,8.38,0,0,1,51.73,20Z"/></g></g></svg>