<svg xmlns="http://www.w3.org/2000/svg" viewBox="0 0 83.07 52.99"><defs><style>.cls-1{fill:#fff;}</style></defs><g id="Capa_2" data-name="Capa 2"><g id="Capa_16" data-name="Capa 16"><path class="cls-1" d="M81.48,16.69,43.75.2a2.35,2.35,0,0,0-1.94,0l-21,9.84h-.17v.08l-19.16,9A2.81,2.81,0,0,0,0,21.81a2.71,2.71,0,0,0,1.68,2.51l6.8,2.62v6.63a3.67,3.67,0,1,0,3,.13V28.08l9.23,3.56V43.27l.59.51c.14.14,9.11,9.21,21.89,9.21,6.4,0,13.65-2.29,21.38-9.13l.47-.52V29.71l16.54-7.87a2.91,2.91,0,0,0-.07-5.15ZM61.69,41.74c-18.85,15.89-34.55,2.87-37.87.06V32.85l18.17,7a2.41,2.41,0,0,0,.84.16,2.53,2.53,0,0,0,1-.23l17.85-8.49Zm3.32-16-3.32,1.57-18.9,9-19-7.3-3.14-1.21L4.56,21.61,20.68,14l3.14-1.48,19-8.92,18.88,8.27L65,13.36,78.6,19.31Z"/></g></g></svg>