<svg xmlns="http://www.w3.org/2000/svg" viewBox="0 0 32.9 55.76"><defs><style>.cls-1{fill:#fff;}</style></defs><g id="Capa_2" data-name="Capa 2"><g id="_14" data-name="14"><path class="cls-1" d="M27.84,55.76s5.06,0,5.06-5.07V5.07C32.9,0,27.84,0,27.84,0H5.06S0,0,0,5.07V50.69c0,5.07,5.06,5.07,5.06,5.07ZM16.45,53.65A2.53,2.53,0,1,1,19,51.12,2.53,2.53,0,0,1,16.45,53.65ZM10.12,3.09a.56.56,0,0,1,.56-.56H22.21a.56.56,0,0,1,.56.56v.15a.55.55,0,0,1-.55.56H10.68a.57.57,0,0,1-.56-.56ZM2.53,6.33H30.37V46.81H2.53Z"/></g></g></svg>