<svg xmlns="http://www.w3.org/2000/svg" viewBox="0 0 15.82 15.82"><defs><style>.cls-1{fill:#ed1e79;}</style></defs><g id="Capa_2" data-name="Capa 2"><g id="_10" data-name="10"><path class="cls-1" d="M14.79,9.7l1-1.79L14.74,6l0-2.17-1.81-1-1-1.79H9.7L7.8,0,6,1.06H4L2.87,2.94,1,4.05,1,6.12,0,7.91,1.08,9.79l0,2.17,1.81,1,1,1.79H6.13L8,15.82,9.8,14.76h2.07L13,12.88l1.87-1.11ZM9.53,13.8H6.38L3.62,12.26,2,9.53,2,6.37,3.58,3.63,6.29,2H9.45L12.2,3.56l1.58,2.73.05,3.16-1.58,2.74Z"/><path class="cls-1" d="M7.85,11a2.68,2.68,0,1,1,2.67-2.67A2.68,2.68,0,0,1,7.85,11Zm0-4.33A1.66,1.66,0,1,0,9.5,8.35,1.66,1.66,0,0,0,7.85,6.69Z"/></g></g></svg>