<svg xmlns="http://www.w3.org/2000/svg" viewBox="0 0 59.12 55.43"><defs><style>.cls-1{fill:#fff;}</style></defs><g id="Capa_2" data-name="Capa 2"><g id="_14" data-name="14"><path class="cls-1" d="M14.78,7.39H3.7A3.7,3.7,0,0,0,0,11.09V51.73a3.69,3.69,0,0,0,3.7,3.7H14.78a3.7,3.7,0,0,0,3.7-3.7V11.09A3.7,3.7,0,0,0,14.78,7.39Zm-9.24,37A1.85,1.85,0,1,1,7.39,42.5,1.84,1.84,0,0,1,5.54,44.34Zm9.24-22.17H3.7V18.48H14.78v3.69Zm0-7.39H3.7V11.09H14.78v3.69Z"/><path class="cls-1" d="M38.8,48v-3.7H27.71V48A3.69,3.69,0,0,0,24,51.73H42.5A3.7,3.7,0,0,0,38.8,48Z"/><path class="cls-1" d="M55.43,0H11.09a3.7,3.7,0,0,0-3.7,3.7h48V33.26H22.17v7.39H55.43A3.69,3.69,0,0,0,59.12,37V3.7A3.7,3.7,0,0,0,55.43,0ZM33.26,38.8A1.85,1.85,0,1,1,35.11,37,1.85,1.85,0,0,1,33.26,38.8Z"/></g></g></svg>