<svg xmlns="http://www.w3.org/2000/svg" viewBox="0 0 80.72 55.11"><defs><style>.cls-1{fill:none;}.cls-2{fill:#fff;}</style></defs><g id="Capa_2" data-name="Capa 2"><g id="_14" data-name="14"><path class="cls-1" d="M13.53,41.77H67.18a1.61,1.61,0,0,0,1.58-1.58V6.94a1.61,1.61,0,0,0-1.58-1.58H13.53a1.52,1.52,0,0,0-1.11.47A1.54,1.54,0,0,0,12,6.94V40.19a1.55,1.55,0,0,0,.47,1.11A1.52,1.52,0,0,0,13.53,41.77Z"/><path class="cls-2" d="M16.1,45.66H64.61a7.17,7.17,0,0,0,7.14-7.14V7.13a6.84,6.84,0,0,0-2.1-5,6.86,6.86,0,0,0-5-2.1H16.1a6.87,6.87,0,0,0-5,2.1A6.86,6.86,0,0,0,9,7.13V38.52a7.15,7.15,0,0,0,7.13,7.14ZM40.89,1.24a1.43,1.43,0,1,1-1.43,1.42A1.42,1.42,0,0,1,40.89,1.24ZM12,6.94a1.54,1.54,0,0,1,.47-1.11,1.52,1.52,0,0,1,1.11-.47H67.18a1.61,1.61,0,0,1,1.58,1.58V40.19a1.61,1.61,0,0,1-1.58,1.58H13.53a1.52,1.52,0,0,1-1.11-.47A1.55,1.55,0,0,1,12,40.19Z"/><path class="cls-2" d="M71.15,45.09l5.1,6.59a.55.55,0,0,1-.43.88H4.9a.55.55,0,0,1-.44-.88l5.1-6.59C8.35,45.09,0,51.58,0,52.18v.92c0,.56.46,1.23,1.78,1.62a18.64,18.64,0,0,0,5,.39H74a15.64,15.64,0,0,0,4.55-.39c1.32-.39,2.18-1.06,2.18-1.62v-.92C80.72,51.58,72.37,45.09,71.15,45.09Z"/></g></g></svg>