<svg xmlns="http://www.w3.org/2000/svg" viewBox="0 0 71.1 55.74"><defs><style>.cls-1{fill:#fff;}</style></defs><g id="Capa_2" data-name="Capa 2"><g id="_14" data-name="14"><path class="cls-1" d="M65.55,6.86h-60A5.56,5.56,0,0,0,0,12.42V50.19a5.55,5.55,0,0,0,5.55,5.55h60a5.55,5.55,0,0,0,5.55-5.55V12.42A5.56,5.56,0,0,0,65.55,6.86Zm-3.95,46H5.48V9.7H61.6Zm4-19.33a2.23,2.23,0,1,1,2.22-2.23A2.22,2.22,0,0,1,65.56,33.53Z"/><path class="cls-1" d="M56.63,3.24H17.56V0H56.63s2.12,1,2.12,1.53S56.63,3.24,56.63,3.24Z"/><path class="cls-1" d="M17.14,3.24h-7a.44.44,0,0,1-.44-.44V.44A.44.44,0,0,1,10.19,0h7Z"/></g></g></svg>